<svg class="cs-header-user-nav__icon cs-header-user-nav__icon--wishlist" xmlns="http://www.w3.org/2000/svg" viewBox="0 0 21.894 18.64"><path data-name="fill" d="M13.185 3.064l-2.245 2.07-2.271-2.042a3.984 3.984 0 00-2.7-1.019 3.989 3.989 0 00-2.952 1.329 4 4 0 00.309 5.648l7.69 6.891 7.591-7a4 4 0 00.23-5.652 4.006 4.006 0 00-5.652-.225z" fill="none"></path><path d="M11.036 18.64l-9.044-8.1a6.009 6.009 0 01-.464-8.48 6.006 6.006 0 018.473-.463l.92.824.908-.838a6.009 6.009 0 018.478.344 6.006 6.006 0 01-.338 8.48zM5.969 2.069a3.989 3.989 0 00-2.952 1.329 4 4 0 00.309 5.648l7.69 6.891 7.591-7a4 4 0 00.23-5.652 4.006 4.006 0 00-5.652-.225L10.94 5.13 8.669 3.088a3.984 3.984 0 00-2.7-1.019z"></path></svg>