<svg xmlns="http://www.w3.org/2000/svg" viewBox="0 0 20 20" data-src="https://www.titoloshop.com/static/version1678880207/frontend/Creativestyle/theme-titolo/en_US/images/icons/social/instagram.svg" class="cs-social-media-list__icon " role="img" aria-label="Instagram logo"><path d="M14.545 20H5.454A5.461 5.461 0 010 14.545V5.454A5.461 5.461 0 015.455 0h9.091A5.461 5.461 0 0120 5.454v9.091A5.461 5.461 0 0114.545 20zM5.454 1.818a3.64 3.64 0 00-3.636 3.636v9.091a3.64 3.64 0 003.636 3.636h9.091a3.64 3.64 0 003.636-3.636V5.454a3.64 3.64 0 00-3.636-3.636z" fill="#fff"></path><path d="M10.03 14.507a4.51 4.51 0 01-2.7-.9 4.516 4.516 0 01-1.789-2.984 4.517 4.517 0 01.845-3.374A4.516 4.516 0 019.37 5.461a4.593 4.593 0 011.333 0 4.519 4.519 0 013.83 3.83 4.516 4.516 0 01-.846 3.375 4.516 4.516 0 01-2.984 1.788 4.645 4.645 0 01-.673.053zm.01-7.274a2.7 2.7 0 00-.4.03 2.708 2.708 0 00-1.79 1.073 2.706 2.706 0 00-.507 2.025 2.7 2.7 0 001.073 1.79 2.706 2.706 0 002.025.507 2.707 2.707 0 001.79-1.073 2.711 2.711 0 00.507-2.025 2.71 2.71 0 00-2.3-2.3 2.68 2.68 0 00-.398-.027zM15 5.909a.908.908 0 01-.642-.267.908.908 0 01-.267-.642.908.908 0 01.267-.642.938.938 0 011.285 0A.908.908 0 0115.91 5a.919.919 0 01-.267.642.908.908 0 01-.643.267z" fill="#fff"></path></svg>