<svg xmlns="http://www.w3.org/2000/svg" viewBox="0 0 19.653 15.98" data-src="https://www.titoloshop.com/static/version1678880207/frontend/Creativestyle/theme-titolo/en_US/images/icons/social/twitter.svg" class="cs-social-media-list__icon " role="img" aria-label="Twitter logo"><path d="M6.166 15.98A11.4 11.4 0 0017.646 4.5c0-.176 0-.351-.008-.519a8.262 8.262 0 002.016-2.092 8.188 8.188 0 01-2.318.636A4.033 4.033 0 0019.11.291a8.172 8.172 0 01-2.56.979A4.015 4.015 0 0013.6 0a4.035 4.035 0 00-4.033 4.033 3.7 3.7 0 00.109.92A11.445 11.445 0 011.359.736a4.048 4.048 0 00-.544 2.025 4.016 4.016 0 001.8 3.355 3.963 3.963 0 01-1.824-.5v.05a4.039 4.039 0 003.238 3.957 4.021 4.021 0 01-1.063.142 3.851 3.851 0 01-.761-.075 4.028 4.028 0 003.765 2.8 8.11 8.11 0 01-5.012 1.724 7.337 7.337 0 01-.962-.059 11.24 11.24 0 006.166 1.824" fill="#fff"></path></svg>