<!-- <?xml version="1.0" ?><svg height="24" fill="#fff" version="1.1" width="24" xmlns="http://www.w3.org/2000/svg" xmlns:cc="http://creativecommons.org/ns#" xmlns:dc="http://purl.org/dc/elements/1.1/" xmlns:rdf="http://www.w3.org/1999/02/22-rdf-syntax-ns#"><g transform="translate(0 -1028.4)"><path d="m7 1031.4c-1.5355 0-3.0784 0.5-4.25 1.7-2.3431 2.4-2.2788 6.1 0 8.5l9.25 9.8 9.25-9.8c2.279-2.4 2.343-6.1 0-8.5-2.343-2.3-6.157-2.3-8.5 0l-0.75 0.8-0.75-0.8c-1.172-1.2-2.7145-1.7-4.25-1.7z" /></g></svg> -->

<svg xmlns="http://www.w3.org/2000/svg" width="256" height="256" viewBox="0 0 256 256"><g fill="currentColor"><path d="M232 94c0 66-104 122-104 122S24 160 24 94a54 54 0 0 1 54-54c22.59 0 41.94 12.31 50 32c8.06-19.69 27.41-32 50-32a54 54 0 0 1 54 54Z" opacity=".2"/><path d="M178 32c-20.65 0-38.73 8.88-50 23.89C116.73 40.88 98.65 32 78 32a62.07 62.07 0 0 0-62 62c0 70 103.79 126.66 108.21 129a8 8 0 0 0 7.58 0C136.21 220.66 240 164 240 94a62.07 62.07 0 0 0-62-62Zm-50 174.8C109.74 196.16 32 147.69 32 94a46.06 46.06 0 0 1 46-46c19.45 0 35.78 10.36 42.6 27a8 8 0 0 0 14.8 0c6.82-16.67 23.15-27 42.6-27a46.06 46.06 0 0 1 46 46c0 53.61-77.76 102.15-96 112.8Z"/></g></svg>